<?xml version="1.0" standalone="no"?>
<!DOCTYPE svg PUBLIC "-//W3C//DTD SVG 20010904//EN"
 "http://www.w3.org/TR/2001/REC-SVG-20010904/DTD/svg10.dtd">
<svg version="1.0" xmlns="http://www.w3.org/2000/svg"
 width="1280.000000pt" height="640.000000pt" viewBox="0 0 1280.000000 640.000000"
 preserveAspectRatio="xMidYMid meet">
<metadata>
Created by potrace 1.15, written by Peter Selinger 2001-2017
</metadata>
<g transform="translate(0.000000,640.000000) scale(0.100000,-0.100000)"
fill="#000000" stroke="none">
<path d="M12279 4843 c-13 -16 -12 -17 4 -4 16 13 21 21 13 21 -2 0 -10 -8
-17 -17z"/>
<path d="M12329 4843 c-13 -16 -12 -17 4 -4 16 13 21 21 13 21 -2 0 -10 -8
-17 -17z"/>
<path d="M8035 4824 c-176 -25 -311 -67 -465 -144 -313 -155 -537 -331 -1170
-919 -573 -533 -789 -706 -1058 -849 l-84 -45 -128 67 c-70 36 -129 66 -132
66 -2 0 -3 -15 -1 -32 1 -18 4 -70 6 -114 l4 -82 -61 -13 c-38 -9 -120 -14
-216 -13 -139 0 -164 3 -245 28 -161 49 -239 109 -293 224 -24 50 -27 70 -28
167 -1 124 -5 153 -40 246 -32 87 -88 144 -162 165 -66 20 -158 9 -272 -32
-127 -44 -115 -53 -112 83 2 65 5 123 7 129 7 23 138 64 205 65 36 0 90 8 120
17 54 17 56 17 101 -5 26 -12 61 -39 78 -60 17 -21 31 -32 31 -25 0 22 -81
101 -116 112 -19 6 -34 16 -34 21 0 31 98 -27 133 -80 24 -36 37 -78 67 -221
6 -25 14 -97 19 -160 l10 -115 -5 130 c-3 72 -12 164 -20 205 -8 41 -19 124
-24 184 -9 105 -34 265 -47 296 -3 8 -7 47 -8 87 -6 139 -65 297 -132 352
-108 89 -290 61 -593 -89 -264 -132 -531 -302 -1270 -810 -190 -130 -384 -263
-432 -294 l-86 -58 -119 21 c-169 30 -158 35 -122 -61 16 -45 28 -86 26 -93
-3 -6 -60 -45 -128 -87 -490 -301 -802 -428 -1028 -416 -56 3 -76 2 -60 -4 31
-12 129 -14 204 -4 47 6 57 5 48 -5 -13 -14 -209 -19 -258 -6 -27 6 -28 6 -10
-5 13 -9 63 -13 151 -13 l132 0 20 -125 c12 -68 19 -126 17 -129 -3 -2 -47 -9
-97 -14 -76 -8 -104 -7 -153 6 -75 19 -85 14 -14 -7 57 -17 158 -20 227 -7 23
5 42 5 42 0 0 -20 -193 -33 -270 -17 -27 6 -25 4 10 -8 45 -15 214 -15 251 0
13 6 19 -15 39 -140 19 -123 21 -147 9 -155 -23 -14 -116 -22 -202 -17 -59 4
-74 2 -57 -5 33 -13 205 -11 249 2 21 6 31 7 25 1 -25 -25 -215 -35 -282 -14
-13 4 -12 2 3 -8 22 -14 173 -18 241 -6 34 7 43 5 48 -9 4 -9 2 -20 -5 -23 -8
-6 -8 -9 0 -11 10 -4 51 -205 51 -250 0 -11 -20 -20 -72 -32 -112 -26 -204
-31 -268 -13 -71 19 -78 12 -9 -8 67 -20 149 -20 245 0 42 8 78 13 80 11 3 -2
-32 -12 -77 -22 -88 -19 -180 -23 -244 -12 -36 6 -37 5 -15 -5 38 -18 213 -12
296 9 l72 19 21 -124 c12 -68 21 -126 19 -127 -2 -2 -34 -12 -73 -24 -106 -32
-239 -47 -305 -34 -67 14 -78 9 -19 -8 58 -15 203 -6 299 20 110 30 130 33 85
16 -116 -46 -262 -69 -348 -55 -78 12 -86 6 -12 -11 209 -47 616 115 1179 469
103 64 152 90 159 83 6 -6 9 -12 6 -14 -2 -1 -80 -51 -174 -109 -327 -204
-553 -324 -749 -399 -56 -21 -95 -39 -88 -39 7 0 52 15 100 34 208 81 419 193
741 394 l183 115 69 -2 c121 -3 196 49 239 166 l21 58 222 150 c716 486 937
629 1155 750 67 37 122 72 122 77 0 5 -39 -11 -87 -37 -215 -115 -538 -325
-1131 -732 -156 -108 -286 -192 -290 -189 -11 12 28 40 423 308 563 382 789
526 1003 640 l92 50 0 -151 c0 -83 2 -151 5 -151 2 0 19 9 37 20 18 11 36 20
41 20 4 0 7 -27 7 -61 l0 -60 112 58 c219 114 296 184 305 280 3 28 -1 65 -10
91 -8 23 -12 44 -8 46 12 8 94 -34 123 -61 14 -14 30 -24 34 -23 11 2 42 -90
55 -166 6 -35 14 -114 18 -176 8 -105 8 -108 10 -36 1 101 -24 295 -50 370
-43 128 -107 188 -207 196 -57 4 -58 4 -134 85 -43 45 -78 84 -78 88 0 3 6 6
13 7 31 2 137 28 133 33 -15 15 141 -13 172 -31 l37 -20 -35 30 c-19 16 -49
33 -68 36 -49 9 -148 -1 -215 -22 -45 -14 -56 -21 -51 -33 20 -45 54 -149 54
-166 0 -17 -15 -26 -83 -48 -46 -15 -85 -27 -88 -27 -2 0 -2 44 1 97 l5 98 53
19 c32 11 49 23 44 28 -5 5 -26 2 -51 -8 -42 -17 -64 -13 -44 7 22 22 190 71
260 76 101 8 152 -8 204 -64 52 -57 69 -98 69 -170 1 -32 7 -89 15 -128 9 -38
24 -133 35 -210 11 -77 22 -146 25 -154 3 -7 10 -68 16 -135 11 -133 36 -255
68 -329 11 -26 18 -53 15 -60 -8 -22 72 -134 123 -171 95 -70 265 -116 429
-116 133 0 194 8 194 27 0 10 -6 13 -16 9 -9 -3 -29 -6 -45 -6 -17 0 -28 -3
-26 -7 3 -5 -39 -8 -93 -8 -54 0 -97 2 -95 5 2 3 -33 12 -78 19 -97 15 -217
59 -274 101 -41 30 -121 135 -111 146 3 3 15 -10 26 -28 52 -84 149 -144 292
-183 78 -21 302 -31 377 -17 l52 9 5 -61 c7 -75 13 -206 9 -206 -1 0 -22 10
-45 22 -63 33 -160 36 -226 8 -28 -12 -57 -28 -63 -36 -8 -10 -37 -14 -105
-14 -82 0 -102 4 -157 28 -132 60 -209 184 -247 397 -10 55 -19 88 -19 74 -1
-15 -3 -42 -6 -60 -4 -30 -4 -31 5 -9 8 19 9 14 5 -26 -6 -62 31 -200 78 -287
54 -102 150 -162 325 -203 39 -10 72 -21 72 -26 0 -26 -242 57 -295 101 -19
15 -19 15 -5 -3 34 -44 188 -112 270 -120 31 -2 53 -16 108 -65 83 -73 122
-91 200 -91 98 0 184 62 216 155 12 34 20 40 112 79 153 65 331 171 478 285
33 25 64 49 70 53 6 4 8 9 5 12 -3 3 -36 -18 -75 -46 -224 -165 -555 -341
-585 -311 -7 7 7 17 48 33 152 60 371 189 542 319 l77 59 15 -110 15 -110 -38
-32 c-115 -99 -360 -258 -503 -326 -319 -152 -638 -170 -892 -49 -143 68 -227
230 -251 489 -7 72 -10 82 -11 42 -1 -62 13 -167 36 -267 13 -58 32 -108 71
-189 3 -5 -1 -5 -8 -1 -20 12 20 -52 62 -99 43 -50 126 -96 223 -124 58 -17
83 -20 145 -13 l75 8 -61 2 c-142 3 -315 71 -390 154 -63 70 -54 76 14 8 65
-66 156 -107 302 -137 108 -21 309 -15 420 15 352 92 700 328 1272 863 101 95
144 128 162 128 15 0 26 -6 26 -12 1 -42 13 -40 275 36 142 42 260 77 261 79
2 1 -5 79 -16 172 -22 198 -34 168 114 283 303 237 573 380 834 443 53 12 57
32 5 23 -72 -12 -249 -76 -354 -129 -170 -85 -311 -177 -512 -338 -88 -70
-122 -89 -103 -58 13 20 228 183 349 265 206 139 479 263 620 282 46 7 47 6
47 -20 0 -24 3 -26 23 -20 57 19 60 15 58 -68 -2 -58 1 -78 11 -78 7 0 70 32
141 71 l129 70 52 -12 c80 -19 137 -49 189 -101 41 -41 45 -43 30 -17 -39 66
-138 131 -205 133 -20 0 -32 4 -26 7 7 4 5 9 -3 12 -8 3 -5 6 8 6 33 1 119
-33 160 -65 54 -41 110 -137 143 -244 17 -52 50 -194 74 -315 48 -237 74 -333
112 -408 14 -26 22 -52 19 -58 -4 -5 -3 -8 2 -7 4 1 31 -20 58 -47 90 -91 224
-133 455 -142 162 -6 309 10 488 52 114 27 152 31 135 14 -31 -31 -310 -79
-496 -86 -162 -6 -290 6 -397 39 -97 30 -140 55 -194 112 -54 56 -49 35 7 -29
81 -95 256 -145 502 -145 198 -1 294 12 510 67 74 19 114 24 154 20 90 -10
145 8 204 64 41 40 79 61 181 105 112 48 136 55 171 49 97 -14 201 35 238 112
20 44 32 52 164 127 78 45 145 85 150 90 4 5 -8 1 -27 -10 -144 -83 -259 -144
-268 -144 -30 0 -6 28 51 59 34 19 127 72 207 120 80 47 153 90 162 96 171
100 858 581 858 600 0 2 -65 -43 -145 -102 -80 -58 -148 -103 -151 -101 -2 3
70 60 161 127 90 67 167 126 170 131 3 6 -74 -49 -172 -121 -155 -114 -569
-395 -674 -457 l-35 -21 -13 92 -12 92 28 24 c28 23 28 24 2 8 -15 -9 -29 -13
-33 -10 -19 20 5 45 112 112 239 152 424 283 414 293 -13 13 -35 0 -26 -14 4
-7 2 -8 -5 -4 -6 4 -44 -16 -89 -47 -105 -73 -413 -270 -416 -265 -4 4 -28
182 -31 224 -1 17 -5 36 -9 43 -4 6 -5 15 -2 19 3 5 88 62 188 126 332 213
729 494 725 514 -1 7 16 28 38 48 26 23 15 17 -33 -17 -40 -29 -70 -54 -67
-57 3 -3 14 3 25 13 11 10 22 16 25 13 2 -2 -50 -44 -116 -92 -67 -48 -123
-85 -125 -83 -3 2 14 16 37 31 22 15 38 30 35 33 -3 4 -23 -7 -44 -24 -85 -68
-637 -431 -683 -448 -13 -5 -18 14 -31 117 l-16 123 21 18 22 18 -22 -11 c-20
-9 -23 -8 -23 7 0 11 23 31 58 52 98 59 481 314 602 401 166 120 340 251 347
263 3 6 -29 -17 -73 -50 -284 -215 -926 -645 -941 -630 -2 3 6 12 19 20 181
113 245 155 373 240 221 148 625 441 625 454 0 3 -15 -6 -32 -19 -124 -94
-371 -270 -523 -373 -175 -117 -433 -281 -458 -291 -8 -3 -14 7 -15 28 -1 18
-7 60 -12 93 -14 84 -12 103 8 109 9 4 28 16 42 27 l25 21 -36 -21 c-38 -22
-59 -27 -59 -13 0 5 53 41 118 82 296 185 902 613 902 636 0 3 -35 -22 -77
-54 -110 -83 -309 -225 -442 -316 -133 -91 -487 -316 -496 -316 -4 0 -20 -9
-36 -21 -16 -11 -29 -16 -29 -11 0 5 64 49 143 98 258 160 821 550 842 584 3
5 -77 -50 -177 -122 -279 -199 -635 -433 -813 -533 -232 -131 -320 -178 -450
-241 -370 -178 -676 -284 -980 -340 -75 -14 -149 -18 -295 -18 -169 0 -207 3
-284 22 -115 29 -164 51 -215 98 -88 78 -122 170 -192 514 -54 269 -75 341
-126 444 -64 127 -148 186 -313 222 -69 14 -245 25 -295 18z m115 -77 c-14 -7
-40 -34 -57 -61 -28 -41 -33 -57 -33 -110 l0 -62 -69 -12 c-86 -14 -224 -60
-333 -111 -85 -39 -266 -143 -325 -187 -17 -13 -41 -24 -53 -24 -12 0 -19 -4
-15 -9 3 -5 -23 -31 -57 -57 -186 -140 -346 -281 -793 -695 -288 -267 -572
-518 -586 -519 -3 0 -12 48 -19 106 l-13 105 39 32 c116 95 270 233 544 488
529 491 682 621 925 784 228 153 465 259 644 287 44 7 78 15 76 18 -2 3 11 4
30 2 18 -2 42 1 52 7 32 19 -79 13 -184 -10 -251 -54 -507 -188 -815 -426
-141 -110 -379 -320 -684 -604 -385 -360 -609 -557 -620 -547 -2 3 35 38 83
79 120 101 250 218 503 454 385 359 566 519 740 652 373 286 693 427 975 432
62 1 67 -1 45 -12z m422 -111 c71 -69 109 -157 148 -344 12 -57 19 -106 16
-110 -3 -3 -6 1 -6 9 0 32 -63 143 -108 192 -27 29 -47 58 -45 65 9 23 -6 59
-40 100 -27 31 -34 49 -33 79 1 29 -5 44 -24 61 l-25 23 40 -19 c22 -11 57
-36 77 -56z m-4676 -101 c53 -16 109 -66 138 -123 13 -24 56 -219 56 -250 0
-3 -13 13 -29 34 -71 99 -146 126 -278 101 -279 -53 -630 -256 -1583 -911
-345 -238 -331 -231 -400 -177 -47 36 -108 71 -126 71 -19 0 -18 16 1 24 8 3
219 145 468 315 508 347 742 501 932 615 269 163 496 268 641 299 90 20 120
20 180 2z m4253 -11 c2 -2 -8 -4 -22 -4 -18 0 -27 5 -27 15 0 13 4 14 23 4 12
-6 24 -13 26 -15z m-21 -88 c-22 -16 -23 -26 -3 -26 13 0 15 -20 15 -120 l0
-120 -26 0 c-27 0 -27 0 -20 61 3 34 6 97 6 140 0 75 1 79 23 79 20 -1 21 -2
5 -14z m-70 -34 c1 -20 0 -83 -4 -138 l-6 -101 -96 -26 c-54 -14 -141 -44
-195 -67 -109 -47 -149 -48 -190 -6 -18 20 -110 60 -191 83 -14 5 -3 16 49 49
189 121 485 241 600 243 28 1 30 -2 33 -37z m212 -35 c44 -15 73 -18 150 -15
109 6 143 -6 206 -69 l38 -38 -24 34 c-13 18 -40 45 -61 60 -40 27 -53 49 -19
31 39 -21 90 -81 121 -143 51 -101 77 -188 130 -447 53 -256 85 -368 124 -435
12 -22 23 -43 24 -47 1 -5 3 -7 5 -5 3 1 21 -14 41 -33 19 -19 68 -51 107 -70
63 -31 75 -41 96 -82 39 -80 112 -98 222 -57 71 27 164 48 168 39 2 -4 -19
-60 -45 -124 l-48 -116 -45 0 c-25 0 -81 7 -125 14 -211 38 -297 92 -365 226
-40 78 -60 150 -111 400 -69 341 -108 455 -186 541 -75 83 -202 128 -388 138
l-110 6 -3 50 c-2 28 -1 78 3 113 6 54 9 62 23 56 10 -4 42 -16 72 -27z
m-4289 -159 c21 -12 50 -38 64 -58 39 -56 82 -194 89 -285 l7 -80 -25 46 c-26
49 -74 95 -113 110 -13 5 -23 17 -23 28 0 12 -34 55 -77 100 -88 89 -159 131
-210 124 -50 -8 -39 4 20 21 110 31 206 29 268 -6z m2989 29 c0 -2 -10 -12
-22 -23 l-23 -19 19 23 c18 21 26 27 26 19z m-70 -60 c0 -2 -12 -14 -27 -28
l-28 -24 24 28 c23 25 31 32 31 24z m-3406 -68 c-28 -30 -29 -33 -34 -162 l-5
-131 -80 -44 c-239 -130 -583 -353 -1145 -740 -151 -105 -276 -189 -277 -188
-2 1 3 31 10 65 12 59 9 123 -8 177 -5 17 20 38 192 156 660 452 1069 713
1266 809 25 12 49 29 52 37 7 18 -187 -85 -364 -193 -181 -111 -484 -312 -851
-565 -264 -181 -369 -246 -320 -198 43 44 954 653 1181 791 130 78 387 217
403 217 6 0 -3 -14 -20 -31z m3336 8 c0 -2 -19 -21 -42 -42 l-43 -40 40 43
c36 39 45 47 45 39z m519 -59 c16 -35 33 -83 36 -108 4 -25 11 -50 16 -56 6
-7 -20 -31 -74 -69 -93 -67 -192 -143 -286 -223 -36 -30 -84 -62 -107 -72 -44
-19 -94 -66 -94 -88 0 -13 -116 -128 -145 -145 -8 -4 -33 3 -61 18 -75 40
-199 30 -256 -22 -42 -37 -47 -68 -32 -193 14 -113 14 -114 -9 -138 -30 -33
-316 -287 -402 -357 l-70 -57 -6 58 c-4 33 -10 89 -14 125 l-7 65 43 35 c113
88 425 369 443 398 15 24 -31 -14 -156 -130 -141 -129 -320 -279 -333 -279
-11 1 7 18 206 191 79 69 248 222 374 340 310 289 534 491 647 581 119 96 241
188 250 188 4 0 20 -28 37 -62z m1082 37 c148 -31 219 -74 281 -169 50 -78 77
-165 132 -436 58 -289 69 -326 115 -425 43 -92 94 -154 157 -191 49 -29 199
-69 296 -79 37 -4 65 -11 62 -16 -13 -22 -164 0 -294 43 -54 18 -76 33 -134
90 -65 65 -67 57 -5 -23 15 -20 54 -49 86 -66 64 -34 185 -67 214 -60 11 3 16
1 13 -5 -4 -6 14 -9 50 -6 31 1 56 1 56 -2 0 -3 -23 -63 -52 -134 l-53 -128
-45 5 c-25 3 -82 17 -127 32 -137 43 -220 137 -272 309 -12 38 -44 180 -72
314 -27 134 -59 271 -71 305 -58 172 -133 260 -257 302 -41 14 -49 22 -74 75
-25 53 -135 206 -142 198 -2 -2 7 -34 20 -73 13 -38 27 -92 31 -119 7 -48 6
-49 -17 -43 -13 4 -57 7 -96 7 l-73 0 1 88 c0 48 4 107 7 132 l7 45 112 0 c61
0 109 -4 106 -9 -3 -5 8 -7 25 -4 17 2 29 1 26 -3 -2 -4 13 -10 35 -14 91 -15
191 -84 249 -171 7 -10 3 0 -10 24 -32 62 -104 125 -171 151 -76 28 -212 51
-303 51 -69 0 -85 6 -66 24 9 10 170 -2 253 -19z m-306 -5 c-19 -21 -35 -18
-35 6 0 9 10 14 27 14 25 0 26 -1 8 -20z m-75 -145 l0 -155 -27 -6 c-76 -17
-143 -35 -181 -48 l-41 -15 -45 50 c-47 52 -70 103 -64 141 4 28 104 73 251
115 53 15 97 31 97 35 0 4 -6 8 -14 8 -28 0 -188 -51 -253 -80 -77 -35 -110
-40 -75 -11 36 31 282 118 340 120 9 1 12 -36 12 -154z m3180 111 c0 -8 -6
-17 -12 -19 -9 -4 -8 -6 2 -6 12 -1 19 -25 31 -106 15 -103 12 -125 -16 -125
-15 0 -46 241 -32 258 13 16 27 15 27 -2z m-3096 -5 c3 -5 3 -63 -1 -129 -5
-110 -8 -121 -27 -126 -11 -3 -21 -4 -22 -3 -2 1 0 62 3 135 5 118 8 132 24
132 10 0 20 -4 23 -9z m3026 5 c0 -22 -721 -378 -735 -364 -3 2 26 17 63 33
105 45 447 217 552 278 86 50 120 65 120 53z m-4430 -29 c0 -2 -17 -19 -37
-38 l-38 -34 34 38 c33 34 41 42 41 34z m4430 -4 c1 -5 9 -62 19 -128 11 -66
18 -121 18 -121 -45 -36 -430 -229 -434 -217 -2 5 -135 -27 -301 -74 -163 -45
-301 -83 -305 -83 -4 0 -5 -22 -1 -49 5 -41 4 -49 -12 -53 -156 -45 -381 -94
-390 -85 -2 2 3 20 11 40 26 63 13 76 -30 32 -31 -30 -31 -19 -4 46 16 36 19
53 11 61 -8 8 -37 -12 -106 -75 -105 -95 -133 -107 -207 -87 -24 6 -74 28
-111 48 -60 32 -70 34 -92 23 -13 -7 -30 -24 -37 -37 -11 -21 -18 -24 -43 -18
-77 16 -173 99 -219 191 -31 61 -74 195 -86 270 -5 32 -12 72 -16 88 -4 17 9
-4 28 -46 47 -106 70 -141 128 -193 131 -117 479 -153 829 -85 356 69 843 266
1250 507 88 52 100 57 100 45z m-7629 -73 c14 -8 19 -21 19 -50 0 -29 -5 -42
-19 -50 -30 -16 -31 -14 -31 50 0 64 1 66 31 50z m3119 7 c0 -1 -33 -34 -72
-72 l-73 -70 70 73 c64 67 75 77 75 69z m5350 -62 c0 -12 -564 -383 -630 -414
-33 -15 -31 -14 199 134 102 66 240 158 305 203 119 82 126 86 126 77z m-4507
-42 c4 -3 -19 -22 -50 -40 -53 -32 -217 -152 -325 -238 -26 -20 -53 -35 -59
-33 -15 5 134 126 291 237 113 79 130 88 143 74z m-3799 -22 c3 -5 -12 -11
-33 -15 -22 -3 -46 -13 -54 -21 -13 -13 -16 -13 -21 0 -10 28 92 62 108 36z
m3876 -16 c24 -14 24 -14 -20 -15 -53 0 -86 -15 -113 -52 -25 -33 -17 -100 18
-152 l24 -36 -72 -46 c-40 -26 -89 -60 -110 -76 -21 -17 -39 -29 -40 -27 -1 2
-7 13 -13 24 -5 11 -30 30 -55 42 -24 13 -57 30 -72 39 l-28 16 91 71 c149
117 313 226 340 226 14 0 36 -6 50 -14z m-1070 2 c0 -1 -30 -32 -67 -67 l-68
-65 65 68 c60 62 70 72 70 64z m4775 -27 c-9 -15 -45 -32 -45 -22 0 5 10 14
23 20 29 14 29 14 22 2z m-7731 -15 c-4 -8 -12 -15 -20 -15 -8 0 -14 -6 -14
-14 0 -9 7 -12 18 -10 16 5 17 -5 13 -123 -3 -127 -8 -142 -40 -143 -20 0 -11
298 10 311 22 14 39 11 33 -6z m4160 -20 c20 -8 36 -17 36 -19 0 -2 -26 -4
-59 -4 -77 0 -117 -21 -130 -68 -5 -19 -7 -42 -4 -50 3 -8 0 -14 -6 -14 -19 0
-41 62 -30 82 8 15 130 86 150 88 4 0 23 -7 43 -15z m3576 -2 c0 -3 -8 -15
-17 -25 -15 -17 -15 -18 -1 -13 19 7 20 3 41 -148 12 -81 12 -89 -5 -104 -10
-9 -20 -14 -21 -12 -2 2 -12 68 -23 147 -13 93 -16 146 -10 152 11 11 36 13
36 3z m-7828 -155 l-3 -153 -82 -44 c-101 -55 -315 -184 -463 -280 l-112 -72
-25 25 c-14 14 -29 37 -34 52 -13 40 -52 65 -113 72 l-52 7 200 132 c109 73
244 160 298 194 99 62 374 219 384 219 3 0 4 -69 2 -152z m7748 148 c0 -10
-409 -226 -427 -226 -5 0 55 33 132 74 77 41 172 92 210 115 66 38 85 47 85
37z m-2861 -21 c10 -11 -8 -12 -91 -7 -50 2 -88 9 -88 15 0 10 168 2 179 -8z
m-297 -123 c-2 -63 -5 -119 -7 -123 -3 -3 -26 -9 -52 -13 -27 -3 -85 -19 -131
-35 l-83 -29 -39 42 c-52 56 -83 96 -79 100 29 26 261 111 333 121 31 5 46 12
46 22 0 11 -8 13 -32 8 -58 -12 -241 -77 -299 -105 -34 -18 -60 -25 -69 -20
-26 16 157 95 315 135 50 13 92 21 95 18 3 -2 3 -57 2 -121z m83 118 c-3 -5
-15 -10 -26 -10 -10 0 -19 5 -19 10 0 6 12 10 26 10 14 0 23 -4 19 -10z m3085
-11 c0 -7 -8 -18 -17 -25 -17 -13 -17 -14 0 -8 9 3 17 5 17 3 1 -2 9 -58 19
-124 11 -66 18 -120 18 -121 -43 -29 -333 -184 -345 -184 -5 0 -9 6 -9 13 3
27 -15 184 -22 195 -6 10 -15 10 -35 2 -68 -25 -38 4 47 46 102 51 287 155
287 161 0 2 -28 -11 -62 -30 -150 -84 -328 -174 -333 -169 -13 13 5 25 168
112 94 51 188 103 207 116 39 25 60 30 60 13z m-3082 -121 c3 -92 2 -96 -20
-101 -12 -4 -25 -3 -28 1 -3 4 -4 53 -2 109 3 100 4 102 25 94 20 -8 22 -16
25 -103z m181 51 c-24 -49 -122 -149 -144 -149 -17 0 -18 27 -9 132 l7 67 81
3 c45 2 82 0 84 -4 2 -3 -7 -26 -19 -49z m-1949 48 c0 -1 -33 -34 -72 -72
l-73 -70 70 73 c64 67 75 77 75 69z m4040 -7 c-8 -5 -19 -10 -25 -10 -5 0 -3
5 5 10 8 5 20 10 25 10 6 0 3 -5 -5 -10z m-1824 -28 c117 -85 182 -224 236
-504 14 -76 25 -113 31 -105 6 8 7 5 3 -7 -10 -28 4 -112 15 -95 6 9 7 3 3
-16 -8 -43 39 -195 89 -290 62 -116 138 -166 302 -197 36 -7 65 -17 65 -21 0
-22 -211 41 -256 75 l-29 22 20 -23 c11 -13 41 -34 66 -46 53 -27 165 -58 179
-50 16 10 11 -16 -10 -64 -23 -51 -25 -61 -7 -61 7 0 28 34 46 75 31 70 51 89
66 65 3 -5 -3 -10 -14 -10 -23 0 -27 -10 -11 -26 7 -7 -2 -38 -25 -93 -20 -46
-33 -86 -30 -89 9 -10 22 11 56 95 l33 82 130 0 c164 0 406 31 406 52 0 12 0
12 -100 -7 -118 -21 -417 -33 -417 -16 0 9 26 12 97 12 169 0 410 40 608 101
52 16 98 29 102 29 8 0 23 -80 16 -87 -2 -2 -19 3 -37 12 -43 23 -147 16 -210
-14 -53 -25 -84 -76 -74 -122 7 -31 66 -89 93 -90 37 -1 -64 -29 -185 -51
-105 -18 -162 -22 -313 -21 -165 0 -196 3 -282 26 -126 33 -163 51 -220 108
-89 89 -122 179 -193 534 -79 391 -133 508 -266 579 -30 16 -55 30 -57 31 -2
1 7 19 18 38 16 26 21 51 20 89 -1 29 -1 57 -1 61 1 5 22 -3 47 -17 58 -32 37
-5 -23 31 -24 13 -43 27 -43 29 0 10 20 2 56 -24z m-6416 14 c0 -3 -15 -14
-32 -26 l-33 -22 30 26 c31 27 35 29 35 22z m8190 -6 c-8 -5 -19 -10 -25 -10
-5 0 -3 5 5 10 8 5 20 10 25 10 6 0 3 -5 -5 -10z m-1936 -123 c-8 -25 -21 -50
-27 -55 -13 -10 -87 -4 -86 7 0 6 122 99 126 96 2 -1 -4 -22 -13 -48z m307 -8
c16 -34 29 -63 27 -65 -2 -2 -18 26 -36 61 -17 36 -30 65 -27 65 3 0 19 -27
36 -61z m-6691 46 c0 -2 -35 -28 -77 -56 -43 -28 -73 -46 -67 -40 10 11 134
99 142 100 1 1 2 -1 2 -4z m4180 -28 c0 -1 -24 -25 -52 -52 l-53 -50 50 53
c46 48 55 57 55 49z m1323 -40 c3 -8 0 -14 -6 -14 -30 0 -361 -236 -473 -337
-58 -51 -64 -54 -64 -27 0 25 270 238 424 335 94 59 111 65 119 43z m117 -64
l91 -46 -130 -67 c-148 -78 -324 -194 -484 -321 -61 -49 -112 -87 -113 -86 -8
7 -21 153 -15 164 7 14 167 144 270 220 83 62 270 183 283 183 4 0 48 -21 98
-47z m-5780 22 c0 -6 -237 -165 -247 -165 -6 0 235 167 245 169 1 1 2 -1 2 -4z
m8848 -20 c-11 -10 -107 -49 -173 -69 -11 -4 23 15 75 42 88 45 131 57 98 27z
m-4628 -8 c0 -2 -19 -21 -42 -42 l-43 -40 40 43 c36 39 45 47 45 39z m-2569
-45 c-27 -18 -27 -32 -1 -25 19 5 20 0 20 -91 0 -94 -1 -97 -26 -106 -14 -6
-27 -10 -30 -10 -6 0 -5 137 2 197 5 39 12 53 28 61 29 13 35 -8 7 -26z m4763
32 c75 -11 52 -23 -39 -21 -79 2 -102 8 -72 20 18 8 58 8 111 1z m3045 -21 c0
-16 8 -81 18 -145 19 -118 17 -138 -14 -138 -7 0 -13 6 -13 13 0 6 -9 71 -19
142 -18 119 -18 131 -3 143 24 18 31 15 31 -15z m-473 -97 l10 -77 -27 -15
c-15 -7 -30 -11 -33 -6 -2 4 -7 44 -11 89 -7 74 -6 81 11 86 34 8 39 1 50 -77z
m421 -69 l20 -139 -38 -23 c-56 -36 -313 -175 -322 -175 -4 0 -6 3 -4 8 2 4
-2 58 -9 121 -7 63 -11 118 -9 122 3 4 58 35 123 69 64 34 122 67 127 72 6 6
-47 -20 -117 -57 -70 -36 -132 -63 -138 -60 -19 12 8 33 134 99 66 36 139 76
161 90 22 14 43 22 46 18 4 -4 16 -69 26 -145z m-7828 24 l2 -119 -98 -53
c-228 -122 -583 -352 -1178 -762 -148 -103 -272 -187 -275 -187 -7 0 -64 149
-59 153 2 2 162 111 354 242 193 131 352 242 353 246 2 5 9 9 15 9 7 0 39 13
72 29 77 37 159 114 160 150 0 22 16 37 95 89 177 118 526 321 551 322 3 0 7
-54 8 -119z m4841 112 c-1 -8 -61 -55 -112 -88 l-28 -17 0 56 0 56 70 0 c39 0
70 -3 70 -7z m2456 -114 l6 -85 -103 -47 c-118 -52 -290 -120 -294 -115 -5 6
-24 212 -19 217 10 10 390 127 396 122 4 -3 10 -45 14 -92z m-4756 88 c0 -2
-10 -12 -22 -23 l-23 -19 19 23 c18 21 26 27 26 19z m857 -175 l9 -93 -168
-154 c-92 -85 -169 -155 -171 -155 -2 0 -4 6 -4 13 -1 6 -4 59 -8 117 l-6 105
41 34 c25 20 63 38 96 46 61 14 118 49 133 82 5 12 7 37 4 56 -4 28 -1 36 21
50 14 10 26 22 26 28 0 5 -16 -2 -35 -17 -53 -40 -57 -18 -5 26 l45 39 7 -42
c4 -23 11 -84 15 -135z m61 160 c18 -12 36 -170 21 -188 -21 -25 -27 -15 -33
64 -4 42 -9 89 -12 105 -6 28 1 33 24 19z m2767 -69 c-14 -31 -27 -58 -29 -60
-2 -2 -28 -6 -57 -9 l-54 -5 29 23 c16 13 52 42 80 65 28 23 52 42 53 42 2 1
-9 -25 -22 -56z m-2620 17 l30 -1 -50 -44 -50 -44 -7 37 c-4 20 -7 47 -7 59
-1 21 0 21 27 7 15 -7 41 -14 57 -14z m-2910 -78 c4 -37 2 -50 -3 -37 -5 11
-12 47 -15 80 -4 43 -3 53 3 37 6 -13 12 -49 15 -80z m-2737 77 c42 -15 52
-47 21 -70 -24 -18 -24 -18 -41 19 -16 35 -22 62 -14 62 1 0 17 -5 34 -11z
m4512 7 c0 -2 -8 -10 -17 -17 -16 -13 -17 -12 -4 4 13 16 21 21 21 13z m4346
-32 c-25 -18 -36 -18 -36 0 0 8 10 16 23 18 31 5 35 -1 13 -18z m-526 -24 c0
-12 -40 -34 -48 -26 -3 4 3 13 14 21 22 17 34 19 34 5z m428 -2 c-6 -16 -138
-51 -312 -84 -112 -21 -151 -24 -135 -10 2 2 63 15 134 29 72 15 166 37 210
50 95 29 108 31 103 15z m113 0 c0 -2 6 -54 13 -116 12 -115 9 -132 -24 -132
-13 0 -18 21 -27 118 -6 64 -9 120 -6 125 4 6 42 11 44 5z m-8676 -47 c55 -15
97 -43 118 -79 l18 -31 -77 -51 c-42 -29 -80 -48 -84 -43 -5 4 -23 46 -40 93
l-31 84 23 18 c13 10 18 18 13 18 -6 0 -16 -5 -23 -12 -6 -6 -15 -8 -19 -4
-13 13 27 36 46 26 9 -4 34 -13 56 -19z m2358 17 c41 -12 117 -75 117 -96 0
-7 -18 6 -39 27 -27 27 -57 44 -95 55 -31 9 -56 19 -56 21 0 9 31 5 73 -7z
m8007 8 c0 -13 -528 -361 -536 -353 -2 2 56 42 129 90 74 47 192 126 263 176
119 83 144 98 144 87z m-10515 -16 c-3 -5 -16 -15 -28 -21 -19 -9 -19 -8 3 10
28 23 34 26 25 11z m8716 8 c8 -37 24 -235 19 -241 -25 -28 -463 -112 -549
-105 l-39 3 45 110 c24 61 50 115 56 122 7 6 55 19 107 27 85 15 235 50 315
75 33 10 45 12 46 9z m-6428 -45 c-10 -66 -41 -122 -104 -189 -34 -35 -66 -64
-71 -64 -4 0 -8 37 -7 83 0 79 8 122 21 115 10 -5 148 45 148 54 0 14 -28 9
-95 -18 -58 -23 -91 -27 -72 -8 8 8 158 63 174 63 8 1 10 -11 6 -36z m7107
-15 c-21 -17 -40 -16 -40 2 0 5 12 16 28 24 35 18 44 0 12 -26z m-9390 2 c-14
-11 -20 -20 -13 -20 6 0 15 5 19 11 11 18 26 -5 60 -96 l32 -86 -24 -16 c-14
-9 -26 -14 -27 -12 -2 2 -18 45 -36 94 -18 50 -37 98 -42 107 -7 14 -3 21 19
32 36 19 43 10 12 -14z m-75 1 c-16 -14 -264 -164 -360 -218 -191 -107 -439
-222 -452 -209 -3 3 7 10 23 16 175 67 469 221 689 361 80 52 127 75 100 50z
m1260 -3 c36 -16 31 -24 -20 -31 -25 -4 -62 -15 -83 -26 -45 -23 -122 -103
-122 -128 -1 -16 -2 -16 -16 2 -33 44 19 115 120 165 65 33 83 36 121 18z
m3776 -8 c31 -17 21 -100 -12 -100 -4 0 -9 25 -11 55 -1 30 -2 55 0 55 2 0 12
-5 23 -10z m3269 1 c0 -5 -9 -11 -20 -14 -23 -6 -27 -27 -6 -27 11 0 2 -31
-33 -117 -38 -94 -53 -119 -70 -121 -11 -2 -21 0 -21 5 0 6 60 152 107 260 2
6 12 14 21 16 10 3 18 5 20 6 1 0 2 -3 2 -8z m-75 -11 c-3 -5 -15 -10 -26 -10
-11 0 -17 5 -14 10 3 6 15 10 26 10 11 0 17 -4 14 -10z m1159 -139 c9 -79 16
-147 16 -151 0 -17 -385 -178 -396 -167 -13 13 -31 237 -20 246 6 4 43 20 81
35 103 40 296 128 292 133 -3 2 -47 -15 -98 -38 -113 -50 -264 -109 -279 -109
-5 0 -10 6 -10 13 0 8 50 34 118 61 64 25 153 64 197 85 44 21 81 38 82 37 1
-1 8 -66 17 -145z m-9335 21 l39 -102 -56 -37 c-237 -152 -474 -286 -653 -368
-134 -61 -146 -64 -153 -28 -16 73 -34 219 -28 224 4 3 34 16 67 29 141 54
444 215 665 353 41 26 76 44 78 39 1 -4 20 -54 41 -110z m4326 108 c-4 -6 -2
-16 3 -23 12 -16 36 -202 28 -216 -16 -25 -24 -6 -35 87 -7 53 -14 109 -16
124 -4 23 2 32 23 37 2 1 0 -4 -3 -9z m5123 -107 c10 -115 10 -118 -11 -135
-12 -9 -24 -15 -28 -13 -3 3 -12 59 -19 126 -13 128 -11 138 31 139 12 0 17
-22 27 -117z m-7370 84 c-33 -26 -37 -43 -8 -27 19 10 20 8 20 -88 0 -95 -1
-100 -25 -116 -13 -9 -27 -16 -31 -16 -4 0 -3 55 0 123 8 126 16 148 55 147
11 -1 7 -8 -11 -23z m3432 1 c0 -7 -4 -20 -10 -28 -5 -9 -5 -17 1 -21 5 -3 14
-39 18 -80 8 -66 7 -76 -10 -94 -19 -19 -19 -19 -19 5 0 14 -5 65 -10 114 -6
63 -6 94 2 103 13 16 28 17 28 1z m4427 -5 c0 -10 -7 -26 -15 -36 -15 -16 -14
-17 1 -11 9 3 17 5 17 3 0 -2 7 -42 15 -89 12 -77 12 -86 -3 -97 -9 -7 -19
-13 -24 -13 -4 0 -8 6 -8 13 0 6 -7 59 -15 117 -14 98 -14 106 2 118 23 16 30
15 30 -5z m-5646 -149 c9 -75 9 -97 -1 -109 -7 -9 -64 -50 -126 -92 l-113 -76
-84 86 -84 87 65 36 c70 38 237 148 287 188 l30 24 7 -25 c4 -14 12 -67 19
-119z m819 139 c0 -10 -42 -53 -52 -53 -17 0 -7 28 15 43 24 17 37 21 37 10z
m-3870 -13 c0 -35 -117 -120 -187 -135 -43 -9 -42 5 4 56 41 45 74 65 130 78
52 12 53 12 53 1z m-330 -27 c-17 -26 -440 -314 -440 -299 0 7 8 20 19 30 26
24 425 294 429 291 2 -2 -2 -11 -8 -22z m8969 -88 c7 -49 15 -98 17 -107 4
-12 -7 -25 -33 -41 -67 -42 -312 -177 -321 -177 -11 0 -34 168 -26 181 3 5 39
28 80 50 41 22 74 43 74 46 0 3 -34 -14 -76 -37 -60 -33 -78 -39 -85 -29 -4 8
-4 18 1 23 26 26 346 200 351 191 3 -5 12 -50 18 -100z m-8579 80 c0 -8 -9
-19 -21 -25 -20 -11 -20 -11 -4 14 20 30 25 32 25 11z m4139 -181 c1 -40 -3
-45 -96 -130 -54 -48 -128 -117 -165 -153 -37 -36 -69 -63 -71 -60 -3 2 -8 40
-11 85 l-7 81 160 148 c89 81 161 152 161 157 0 6 -45 -32 -101 -83 -151 -141
-217 -199 -223 -199 -27 0 18 52 162 184 l167 155 12 -72 c6 -40 12 -91 12
-113z m-5109 149 c2 -16 4 -68 4 -117 l1 -88 19 43 c11 24 29 77 41 118 l21
74 21 -49 c11 -27 23 -75 26 -107 l5 -58 -105 -70 c-58 -39 -106 -69 -108 -67
-8 8 -75 188 -75 201 0 8 30 34 68 58 37 24 69 44 71 46 2 2 2 5 0 8 -3 2 -35
-16 -72 -40 -66 -44 -92 -55 -85 -34 3 10 146 108 159 109 4 0 8 -12 9 -27z
m4671 -26 c-14 -14 -14 -28 1 -24 8 1 16 -33 24 -103 13 -100 12 -106 -6 -125
-16 -15 -20 -16 -21 -5 0 8 -6 69 -13 135 -12 107 -12 122 3 138 10 12 17 14
19 7 3 -7 -1 -17 -7 -23z m-4101 -3 c0 -16 13 -39 35 -61 19 -19 35 -38 35
-41 0 -3 8 -14 17 -24 14 -16 15 -20 2 -32 -17 -17 -600 -417 -615 -423 -10
-4 -92 194 -83 201 2 1 126 85 274 186 149 101 281 192 295 201 34 25 40 23
40 -7z m1432 -38 c-37 -49 -111 -113 -184 -159 -37 -23 -39 -22 -35 21 4 35 9
40 93 88 48 28 104 65 124 81 19 17 37 29 39 27 2 -2 -15 -28 -37 -58z m508
-103 c111 -115 390 -177 622 -139 54 9 99 16 101 16 2 0 4 -6 4 -12 1 -7 4
-63 8 -124 l8 -111 -98 -13 c-236 -31 -499 31 -607 144 -24 25 -58 73 -75 108
-30 63 -64 185 -62 223 1 11 -2 34 -6 50 -5 18 6 5 26 -33 19 -34 54 -83 79
-109z m-1569 103 c-22 -23 -121 -82 -121 -72 0 6 131 96 139 96 3 0 -6 -11
-18 -24z m7609 4 c0 -5 -9 -15 -20 -22 -23 -15 -27 -33 -5 -24 21 8 23 -1 38
-133 l13 -113 -24 -9 c-14 -5 -26 -8 -27 -7 -2 2 -8 57 -14 123 -7 66 -14 133
-16 148 -4 22 0 30 18 37 30 12 37 12 37 0z m-5258 -27 c8 -10 16 -37 17 -60
2 -32 -2 -44 -17 -52 -17 -9 -20 -6 -26 27 -8 53 -7 102 2 102 5 0 16 -8 24
-17z m1306 -5 c0 -13 7 -72 15 -133 l16 -109 -82 -76 c-112 -104 -268 -244
-347 -309 l-65 -54 -12 114 -13 114 28 25 c16 14 71 61 123 105 171 145 332
295 325 302 -3 3 -56 -41 -118 -98 -213 -196 -354 -313 -362 -300 -4 5 33 43
81 83 106 87 338 295 372 332 30 32 39 33 39 4z m-4802 -33 c-9 -7 -16 -16
-16 -20 0 -4 7 -2 15 5 9 7 19 10 23 6 4 -4 23 -51 44 -104 l36 -97 -21 -18
c-25 -22 -24 -25 -78 120 l-41 108 23 18 c17 14 25 15 28 6 2 -7 -4 -18 -13
-24z m8639 0 c2 -17 8 -68 14 -115 6 -46 11 -101 11 -120 0 -40 9 -36 -184
-85 -156 -41 -241 -55 -403 -67 -209 -16 -203 -22 -144 124 26 65 51 122 56
127 6 5 51 11 100 15 120 8 253 29 359 57 112 29 176 51 176 60 0 6 -4 8 -8 5
-40 -24 -395 -96 -481 -96 -25 -1 -65 -5 -88 -9 -38 -7 -43 -6 -43 10 0 16 8
19 43 19 86 0 284 32 426 69 80 21 150 38 155 37 5 -1 10 -15 11 -31z m-7687
-1 c-11 -11 -23 -14 -35 -9 -15 7 -13 9 12 15 17 4 32 8 35 9 2 0 -3 -6 -12
-15z m2618 -21 c19 -12 22 -18 12 -24 -26 -17 -48 -10 -48 16 0 30 3 30 36 8z
m-3636 -7 c0 -28 -503 -326 -694 -411 -47 -21 -84 -40 -82 -42 14 -15 386 183
620 329 87 55 162 96 166 91 8 -10 81 -205 78 -208 -294 -187 -444 -276 -622
-369 -172 -90 -276 -133 -284 -118 -4 6 -16 61 -26 123 -16 94 -17 112 -5 120
11 7 10 9 -3 9 -39 0 -15 26 45 49 147 57 458 223 687 368 63 40 116 73 118
73 1 0 2 -6 2 -14z m9910 -1 c0 -2 -10 -9 -22 -15 -22 -11 -22 -10 -4 4 21 17
26 19 26 11z m-500 -19 c0 -8 -10 -22 -22 -31 -22 -16 -22 -17 -2 -11 20 6 22
2 28 -51 4 -32 9 -75 12 -95 5 -30 2 -39 -11 -44 -28 -11 -39 13 -51 118 -12
93 -11 104 3 116 22 16 43 15 43 -2z m-5104 -23 c-4 -9 -3 -19 2 -22 5 -3 16
-57 24 -119 13 -103 13 -115 -1 -130 -15 -14 -17 -10 -24 44 -19 157 -24 229
-13 236 17 11 19 10 12 -9z m1164 -3 c-11 -20 -30 -28 -30 -12 0 11 22 32 32
32 5 0 4 -9 -2 -20z m-4437 4 c3 -4 -87 -70 -201 -148 -114 -78 -271 -186
-350 -240 -106 -73 -146 -96 -155 -87 -7 7 -7 14 -1 19 5 5 131 92 279 192
149 101 298 203 333 227 61 42 82 50 95 37z m8802 -3 c-6 -10 -207 -127 -265
-155 -50 -23 -23 -6 130 84 147 86 144 84 135 71z m-1785 -12 c0 -6 -9 -13
-20 -16 -22 -6 -27 -19 -9 -25 7 -2 -9 -53 -41 -131 -41 -99 -57 -127 -71
-127 -11 0 -19 4 -19 8 0 9 62 163 92 232 9 19 18 43 22 53 6 18 46 24 46 6z
m-4252 -108 c40 -96 40 -97 -32 -130 -71 -32 -136 -55 -141 -49 -2 2 -7 47
-11 100 l-7 97 59 28 c72 34 69 32 61 39 -4 4 -29 -3 -58 -15 -28 -12 -54 -20
-57 -17 -7 8 -5 9 53 34 l50 21 32 -31 c17 -17 40 -51 51 -77z m5502 89 c0
-13 -11 -25 -32 -34 -18 -8 -27 -15 -20 -15 7 -1 22 3 32 9 15 8 18 5 22 -20
3 -17 4 -30 2 -30 -1 0 -19 7 -40 16 -28 12 -55 15 -99 10 l-60 -6 90 44 c50
25 93 45 98 45 4 1 7 -8 7 -19z m-5027 -155 c8 -60 13 -113 10 -117 -6 -12
-158 -118 -245 -171 -88 -55 -259 -138 -340 -166 l-55 -19 -7 82 c-3 44 -6
100 -6 123 0 39 2 42 38 54 52 17 132 58 132 68 0 4 -35 -6 -79 -23 -43 -17
-76 -35 -73 -41 3 -5 -1 -4 -8 2 -17 16 -21 13 87 60 l91 40 -5 -36 c-3 -20
-14 -58 -24 -86 l-19 -50 35 40 c20 22 48 59 63 82 15 24 30 43 33 43 9 0 -7
-100 -25 -150 -8 -24 -13 -46 -11 -48 2 -2 25 25 51 60 47 64 81 131 91 180 4
21 28 42 97 89 131 89 135 93 136 106 0 6 -48 -22 -106 -63 -59 -41 -110 -74
-115 -74 -22 0 -3 19 66 63 41 27 94 64 117 82 l43 33 7 -27 c4 -14 13 -75 21
-136z m1217 49 c9 -85 10 -118 1 -127 -6 -6 -14 -8 -18 -4 -10 10 -28 211 -20
230 15 39 25 10 37 -99z m-5090 73 c0 -21 -170 -131 -182 -119 -7 7 20 31 78
70 96 65 104 69 104 49z m5003 -103 l6 -50 -122 -38 c-67 -21 -137 -45 -154
-52 -18 -8 -33 -11 -33 -9 0 6 107 107 210 198 l75 67 6 -33 c4 -17 9 -55 12
-83z m-1833 81 c-11 -13 -10 -18 3 -28 23 -17 27 -201 5 -205 -9 -2 -18 4 -21
12 -5 11 -10 192 -8 229 1 4 8 7 17 7 14 0 14 -3 4 -15z m3890 -25 c11 -22 18
-40 15 -40 -2 0 -14 18 -25 40 -11 22 -18 40 -15 40 2 0 14 -18 25 -40z
m-7740 25 c0 -2 -13 -11 -30 -20 -38 -19 -40 -11 -2 9 31 17 32 18 32 11z
m-715 -15 c-3 -5 -14 -10 -23 -10 -15 0 -15 2 -2 10 20 13 33 13 25 0z m55
-25 c0 -8 -4 -15 -10 -15 -5 0 -10 7 -10 15 0 8 5 15 10 15 6 0 10 -7 10 -15z
m3711 -120 c-1 -5 1 -7 5 -3 8 9 34 -10 34 -24 0 -6 -7 -5 -17 2 -10 7 10 -15
44 -48 65 -64 111 -86 253 -124 127 -33 420 -27 420 9 0 11 -5 13 -17 8 -10
-4 -79 -10 -154 -13 -104 -3 -155 0 -220 13 -103 20 -218 64 -265 100 -49 38
-35 43 16 6 66 -47 225 -94 360 -106 68 -6 210 5 271 20 20 5 24 2 24 -17 1
-13 4 -78 9 -145 7 -115 6 -123 -11 -124 -10 0 -54 -4 -98 -8 -201 -20 -444
37 -547 128 -77 67 -125 172 -153 330 -23 132 -20 144 17 70 18 -35 31 -68 29
-74z m2219 121 c0 -8 -7 -21 -15 -30 -19 -19 -19 -27 0 -20 16 6 20 -8 30 -97
5 -47 3 -58 -14 -73 -18 -17 -19 -16 -25 11 -14 65 -17 195 -5 209 15 18 29
18 29 0z m-5949 -259 c-6 -6 -13 -9 -15 -6 -9 8 -37 193 -33 211 3 10 1 18 -4
18 -14 0 -11 28 4 33 17 6 64 -240 48 -256z m609 259 c0 -7 -164 -98 -285
-158 -123 -61 -223 -103 -230 -96 -3 3 51 29 120 58 69 29 185 86 258 126 144
79 137 76 137 70z m9352 -39 c-55 -56 -35 -121 48 -159 28 -13 50 -26 50 -29
0 -7 -165 -79 -178 -79 -4 0 -8 21 -9 48 -2 26 -6 68 -9 94 -5 45 -4 47 26 63
18 9 30 19 27 22 -3 2 -14 0 -24 -5 -20 -11 -53 1 -40 15 7 6 124 60 136 62 3
1 -9 -14 -27 -32z m-10045 1 c-3 -8 -6 -5 -6 6 -1 11 2 17 5 13 3 -3 4 -12 1
-19z m123 -95 c10 -54 14 -102 10 -106 -7 -8 -40 150 -40 194 0 45 13 8 30
-88z m-96 -37 c9 -54 15 -101 12 -103 -4 -4 -18 58 -31 142 -3 22 -9 49 -12
60 -3 13 -2 17 5 10 5 -5 17 -54 26 -109z m1206 89 c0 -8 -9 -19 -19 -25 -27
-14 -40 9 -16 27 24 17 35 17 35 -2z m4720 2 c0 -15 -128 -136 -330 -313 -166
-145 -157 -137 -163 -120 -4 9 40 54 126 129 73 63 181 160 241 216 60 55 113
101 117 101 5 0 9 -6 9 -13z m3944 -21 c-3 -7 -16 -18 -30 -24 -21 -10 -24 -9
-24 7 0 20 13 29 42 30 11 1 15 -4 12 -13z m-8613 -109 c36 -95 36 -96 17
-114 -24 -22 -26 -18 -69 99 -26 73 -29 91 -19 103 7 9 18 14 24 12 6 -2 27
-47 47 -100z m-133 76 c-6 -31 -457 -304 -712 -430 -83 -41 -140 -71 -126 -68
85 25 446 223 740 408 58 37 108 63 112 59 14 -15 77 -197 69 -202 -15 -9
-173 -112 -286 -186 -263 -170 -652 -376 -666 -352 -8 15 -39 195 -39 225 0
11 10 25 23 31 21 11 20 11 -5 6 -23 -5 -28 -3 -28 12 0 14 17 26 62 43 160
62 449 218 703 380 77 49 144 90 148 90 5 1 7 -6 5 -16z m4815 -88 l6 -60
-136 -125 c-74 -69 -183 -167 -242 -218 l-106 -93 -6 33 c-4 18 -10 56 -13 84
l-6 50 86 74 c91 77 134 116 298 268 113 104 107 105 119 -13z m3942 4 c4 -44
4 -83 1 -86 -3 -4 -17 -1 -30 5 -21 9 -25 19 -28 74 -4 67 4 88 32 88 15 0 19
-13 25 -81z m-4516 0 c-8 -16 -8 -23 1 -29 6 -4 18 -54 26 -110 13 -92 13
-106 -1 -119 -8 -8 -16 -13 -18 -10 -11 13 -32 270 -23 279 18 18 27 11 15
-11z m-49 -31 c-1 -27 -269 -203 -427 -279 -130 -63 -214 -92 -227 -79 -6 6
-3 12 10 16 82 29 185 73 270 118 100 52 323 196 345 222 14 17 29 18 29 2z
m-700 -17 c0 -5 -6 -11 -12 -14 -10 -3 -10 -7 0 -19 8 -10 15 -61 19 -132 5
-102 4 -116 -10 -116 -20 0 -26 32 -30 172 -2 69 1 109 7 112 18 7 26 6 26 -3z
m-4545 -21 c-3 -5 -13 -10 -21 -10 -8 0 -12 5 -9 10 3 6 13 10 21 10 8 0 12
-4 9 -10z m5261 -102 c7 -57 14 -108 14 -114 0 -14 -193 -153 -320 -230 -86
-53 -272 -143 -327 -159 -21 -6 -23 -3 -23 28 0 19 -3 75 -6 125 l-7 92 39 15
c113 46 197 84 269 124 95 52 297 186 321 212 10 11 19 17 21 15 3 -2 11 -51
19 -108z m4844 98 c-18 -16 -205 -96 -226 -96 -37 0 -1 26 91 66 102 44 164
58 135 30z m-10040 -78 c7 -40 18 -104 25 -141 6 -37 8 -70 4 -73 -10 -6 -14
9 -34 136 -9 52 -18 107 -21 123 -3 15 -1 27 4 27 6 0 16 -33 22 -72z m-46
-30 c10 -51 22 -115 27 -142 6 -33 6 -53 -1 -60 -5 -5 -12 -7 -15 -4 -9 8 -46
230 -41 243 2 7 0 17 -6 23 -11 11 -3 32 11 32 5 0 16 -42 25 -92z m-67 50
c-3 -8 -6 -5 -6 6 -1 11 2 17 5 13 3 -3 4 -12 1 -19z m1293 -23 c0 -19 -36
-39 -45 -25 -8 13 13 40 31 40 8 0 14 -7 14 -15z m-1265 -105 c9 -58 19 -113
21 -122 3 -10 1 -18 -3 -18 -8 0 -43 191 -43 234 0 39 8 8 25 -94z m1308 -4
l26 -68 -22 6 c-12 3 -27 6 -33 6 -6 0 -18 26 -28 57 -18 55 -18 57 0 70 23
16 26 13 57 -71z m-123 56 c0 -10 5 -23 12 -30 9 -9 9 -12 1 -12 -7 0 -15 5
-18 10 -4 6 -12 10 -18 9 -7 -1 -21 -1 -32 0 -17 1 -16 4 10 21 37 25 45 25
45 2z m4180 -106 c0 -8 -4 -18 -10 -21 -5 -3 -10 -11 -10 -16 0 -6 4 -8 9 -5
13 8 19 -12 26 -91 6 -57 4 -71 -9 -82 -9 -7 -16 -10 -16 -5 -1 5 -7 54 -14
109 -9 67 -10 104 -4 113 14 16 28 15 28 -2z m-1693 -18 c-3 -8 -6 -5 -6 6 -1
11 2 17 5 13 3 -3 4 -12 1 -19z m-3487 -32 c0 -2 -7 -7 -16 -10 -8 -3 -12 -2
-9 4 6 10 25 14 25 6z m676 -67 c0 -34 6 -47 33 -71 17 -16 45 -31 62 -35 16
-3 32 -9 34 -13 13 -22 -684 -430 -733 -430 -5 0 -14 39 -21 88 -7 48 -15 101
-18 118 l-5 31 154 76 c156 77 371 197 443 248 22 15 42 28 45 29 3 0 5 -19 6
-41z m3712 21 c-10 -15 -10 -23 -2 -28 7 -4 14 -58 19 -129 6 -106 5 -123 -8
-123 -18 0 -24 45 -31 203 -3 90 -2 97 15 97 17 0 18 -3 7 -20z m-4438 -26 c0
-8 -4 -14 -10 -14 -5 0 -10 9 -10 21 0 11 5 17 10 14 6 -3 10 -13 10 -21z
m-28 -136 c15 -90 22 -157 17 -162 -5 -5 -11 -7 -14 -4 -9 9 -56 292 -50 305
12 33 23 1 47 -139z m-72 110 c0 -19 -2 -20 -10 -8 -13 19 -13 30 0 30 6 0 10
-10 10 -22z m121 -115 c20 -117 23 -150 12 -139 -9 8 -41 187 -42 230 -2 56
12 16 30 -91z m3583 60 c9 -18 14 -33 12 -33 -6 0 -36 55 -36 66 0 11 5 3 24
-33z m-3679 -98 c9 -60 19 -115 22 -122 3 -7 1 -13 -4 -13 -6 0 -18 48 -27
108 -10 59 -20 118 -23 132 -4 17 -2 22 4 15 6 -5 18 -59 28 -120z m129 -171
c3 -17 13 -66 21 -110 17 -91 18 -104 7 -104 -7 0 -24 88 -38 192 -2 14 -4 30
-5 35 -1 4 -1 12 0 17 2 17 10 1 15 -30z m-29 -104 c17 -112 16 -147 -4 -124
-11 13 -34 170 -26 183 3 6 1 11 -4 11 -12 0 -15 33 -4 43 15 16 21 1 38 -113z
m-65 79 c0 -11 -4 -17 -10 -14 -5 3 -10 13 -10 21 0 8 5 14 10 14 6 0 10 -9
10 -21z m20 -129 c14 -101 9 -133 -8 -43 -21 114 -24 146 -15 140 6 -4 16 -47
23 -97z m280 -4 c0 -2 -7 -7 -16 -10 -8 -3 -12 -2 -9 4 6 10 25 14 25 6z m-80
-41 c-25 -13 -49 -24 -55 -24 -5 0 10 11 35 24 25 13 50 24 55 24 6 0 -10 -11
-35 -24z m-133 -61 c-3 -3 -12 -4 -19 -1 -8 3 -5 6 6 6 11 1 17 -2 13 -5z"/>
<path d="M8510 4654 c0 -3 22 -27 48 -53 26 -25 56 -57 65 -71 17 -24 17 -24
1 9 -26 54 -114 143 -114 115z"/>
<path d="M3715 4515 c-173 -38 -446 -173 -780 -385 -207 -131 -1202 -806
-1230 -833 -36 -36 80 40 493 322 696 475 944 631 1207 757 150 72 267 114
342 121 35 4 50 9 46 17 -4 6 2 4 12 -4 17 -13 18 -13 10 0 -7 12 -6 13 6 4 8
-6 32 -14 53 -17 49 -8 111 -48 136 -90 11 -18 20 -27 20 -22 0 20 -39 73 -72
98 -62 47 -134 56 -243 32z"/>
<path d="M7971 4414 c-150 -33 -379 -131 -531 -228 -72 -47 -40 -46 36 0 148
90 359 176 502 205 38 8 62 18 62 26 0 7 -1 13 -2 12 -2 -1 -32 -7 -67 -15z"/>
<path d="M9005 3231 c38 -41 100 -79 155 -96 22 -7 23 -6 11 9 -7 9 -17 16
-22 16 -21 0 -100 44 -140 77 l-44 37 40 -43z"/>
<path d="M3775 4211 c-40 -11 -27 -14 80 -15 97 -2 119 -9 174 -60 31 -27 33
-28 19 -6 -8 14 -33 38 -56 54 -35 24 -52 29 -114 32 -40 1 -86 -1 -103 -5z"/>
<path d="M7245 4053 c-184 -139 -390 -316 -670 -577 -82 -77 -152 -142 -155
-144 -3 -3 6 1 20 8 14 7 81 66 150 130 278 259 583 518 703 595 25 16 37 36
20 34 -5 0 -35 -21 -68 -46z"/>
<path d="M11105 3973 c-78 -52 -483 -253 -637 -317 -244 -101 -478 -173 -693
-212 -119 -22 -404 -30 -504 -14 -219 34 -320 92 -389 225 -12 22 -21 35 -22
29 0 -21 72 -130 110 -165 46 -42 103 -72 141 -73 15 -1 25 -4 23 -7 -6 -10
113 -32 131 -25 9 3 14 2 11 -3 -3 -5 43 -11 102 -15 408 -25 935 136 1577
483 94 51 177 99 185 107 21 20 11 17 -35 -13z"/>
<path d="M3310 3646 c-240 -138 -689 -428 -672 -434 5 -1 94 53 198 121 205
134 392 249 519 317 95 52 88 46 84 59 -2 5 -60 -23 -129 -63z"/>
<path d="M10200 2500 l-25 -8 28 -1 c15 -1 27 4 27 9 0 6 -1 10 -2 9 -2 -1
-14 -5 -28 -9z"/>
<path d="M11208 3324 c-38 -20 -36 -28 2 -9 17 9 30 18 30 20 0 7 -1 6 -32
-11z"/>
<path d="M3360 3309 c-131 -74 -255 -149 -400 -242 -178 -115 -165 -105 -158
-113 3 -3 50 24 104 59 138 88 365 226 452 272 39 22 72 43 72 47 0 13 -13 9
-70 -23z"/>
<path d="M1340 3064 c-79 -56 -315 -193 -475 -276 -93 -48 -167 -88 -162 -88
36 -1 617 322 677 377 24 22 -3 14 -40 -13z"/>
<path d="M660 2690 c-8 -5 -10 -10 -5 -10 6 0 17 5 25 10 8 5 11 10 5 10 -5 0
-17 -5 -25 -10z"/>
<path d="M610 2670 c-8 -5 -10 -10 -5 -10 6 0 17 5 25 10 8 5 11 10 5 10 -5 0
-17 -5 -25 -10z"/>
<path d="M5610 2989 c-47 -33 -124 -84 -172 -112 -79 -47 -103 -67 -80 -67 26
0 351 224 341 235 -3 2 -43 -23 -89 -56z"/>
<path d="M11274 2994 c-18 -14 -18 -15 4 -4 12 6 22 13 22 15 0 8 -5 6 -26
-11z"/>
<path d="M11188 2946 c-78 -44 -88 -58 -13 -17 55 30 86 51 75 51 -3 0 -31
-15 -62 -34z"/>
<path d="M4190 2903 c0 -13 3 -23 8 -23 4 0 16 -16 26 -35 28 -51 99 -113 160
-140 116 -51 211 -70 361 -70 81 0 165 6 199 14 77 17 61 35 -20 20 -32 -7
-113 -12 -179 -12 -259 0 -468 91 -539 235 -13 28 -16 30 -16 11z"/>
<path d="M680 2370 c-8 -5 -10 -10 -5 -10 6 0 17 5 25 10 8 5 11 10 5 10 -5 0
-17 -5 -25 -10z"/>
<path d="M719 2259 c-15 -29 2 -65 35 -71 14 -3 24 -2 24 1 -1 3 2 16 6 29 6
17 3 29 -10 43 -22 25 -41 24 -55 -2z"/>
<path d="M6770 2610 c-58 -55 -102 -99 -98 -100 12 0 203 172 206 187 2 7 2
13 0 13 -2 -1 -50 -45 -108 -100z"/>
<path d="M747 2008 c-34 -18 -15 -78 25 -78 23 0 32 22 24 54 -7 28 -26 38
-49 24z"/>
<path d="M815 1920 c-16 -7 -17 -9 -3 -9 9 -1 20 4 23 9 7 11 7 11 -20 0z"/>
<path d="M1240 1924 c-74 -44 -196 -113 -270 -152 -141 -75 -172 -98 -47 -36
81 41 412 227 441 249 11 8 18 16 15 18 -2 2 -65 -34 -139 -79z"/>
<path d="M790 1685 c-14 -8 -20 -14 -15 -14 6 0 21 6 35 14 14 8 21 14 15 14
-5 0 -21 -6 -35 -14z"/>
<path d="M12239 4813 c-13 -16 -12 -17 4 -4 16 13 21 21 13 21 -2 0 -10 -8
-17 -17z"/>
<path d="M12199 4783 c-13 -16 -12 -17 4 -4 9 7 17 15 17 17 0 8 -8 3 -21 -13z"/>
<path d="M12369 4533 c-13 -16 -12 -17 4 -4 16 13 21 21 13 21 -2 0 -10 -8
-17 -17z"/>
<path d="M12329 4503 c-13 -16 -12 -17 4 -4 16 13 21 21 13 21 -2 0 -10 -8
-17 -17z"/>
<path d="M12389 4203 c-13 -16 -12 -17 4 -4 16 13 21 21 13 21 -2 0 -10 -8
-17 -17z"/>
<path d="M12349 4173 c-13 -16 -12 -17 4 -4 16 13 21 21 13 21 -2 0 -10 -8
-17 -17z"/>
<path d="M12359 4153 c-13 -16 -12 -17 4 -4 9 7 17 15 17 17 0 8 -8 3 -21 -13z"/>
<path d="M12012 4074 l-102 -75 27 -37 c15 -20 28 -39 29 -41 3 -4 155 98 198
132 l29 24 -27 36 c-16 21 -33 37 -40 36 -6 0 -57 -34 -114 -75z"/>
<path d="M11364 4124 c-18 -14 -18 -15 4 -4 12 6 22 13 22 15 0 8 -5 6 -26
-11z"/>
<path d="M12319 4123 c-13 -16 -12 -17 4 -4 16 13 21 21 13 21 -2 0 -10 -8
-17 -17z"/>
<path d="M12279 4093 c-13 -16 -12 -17 4 -4 16 13 21 21 13 21 -2 0 -10 -8
-17 -17z"/>
<path d="M12127 4013 c-26 -19 -46 -38 -43 -40 5 -5 106 65 106 73 0 10 -18 0
-63 -33z"/>
<path d="M11474 3854 c-18 -14 -18 -15 4 -4 12 6 22 13 22 15 0 8 -5 6 -26
-11z"/>
<path d="M11364 3784 c-18 -14 -18 -15 4 -4 12 6 22 13 22 15 0 8 -5 6 -26
-11z"/>
<path d="M12333 3785 c0 -8 4 -12 9 -9 5 3 6 10 3 15 -9 13 -12 11 -12 -6z"/>
<path d="M12291 3766 c-8 -10 -9 -16 -1 -21 5 -3 10 -5 11 -3 4 18 7 38 4 38
-1 0 -8 -6 -14 -14z"/>
<path d="M12253 3738 c-13 -22 -13 -42 0 -29 10 10 19 41 12 41 -2 0 -7 -6
-12 -12z"/>
<path d="M12107 3632 c-70 -51 -113 -90 -108 -95 12 -12 228 147 228 168 0 8
-1 15 -1 14 -1 0 -54 -40 -119 -87z m83 44 c0 -2 -8 -10 -17 -17 -16 -13 -17
-12 -4 4 13 16 21 21 21 13z m-40 -30 c0 -3 -15 -14 -32 -26 l-33 -22 30 26
c31 27 35 29 35 22z m-70 -50 c0 -2 -8 -10 -17 -17 -16 -13 -17 -12 -4 4 13
16 21 21 21 13z"/>
<path d="M11961 3526 c-9 -10 -9 -16 -1 -21 13 -8 42 14 34 26 -8 13 -20 11
-33 -5z"/>
<path d="M12369 3523 c-13 -16 -12 -17 4 -4 16 13 21 21 13 21 -2 0 -10 -8
-17 -17z"/>
<path d="M11494 3494 c-18 -14 -18 -15 4 -4 12 6 22 13 22 15 0 8 -5 6 -26
-11z"/>
<path d="M11925 3501 c-7 -12 12 -24 25 -16 11 7 4 25 -10 25 -5 0 -11 -4 -15
-9z"/>
<path d="M12369 3493 c-13 -16 -12 -17 4 -4 16 13 21 21 13 21 -2 0 -10 -8
-17 -17z"/>
<path d="M12329 3463 c-13 -16 -12 -17 4 -4 16 13 21 21 13 21 -2 0 -10 -8
-17 -17z"/>
<path d="M11414 3444 c-18 -14 -18 -15 4 -4 12 6 22 13 22 15 0 8 -5 6 -26
-11z"/>
<path d="M12289 3433 c-13 -16 -12 -17 4 -4 16 13 21 21 13 21 -2 0 -10 -8
-17 -17z"/>
<path d="M11444 2794 c-18 -14 -18 -15 4 -4 12 6 22 13 22 15 0 8 -5 6 -26
-11z"/>
<path d="M11364 2744 c-18 -14 -18 -15 4 -4 12 6 22 13 22 15 0 8 -5 6 -26
-11z"/>
<path d="M11314 2714 c-18 -14 -18 -15 4 -4 12 6 22 13 22 15 0 8 -5 6 -26
-11z"/>
<path d="M6427 2293 c-34 -32 -89 -83 -122 -114 -500 -468 -881 -729 -1189
-816 -59 -17 -92 -31 -89 -37 5 -8 2 -8 -8 -1 -8 6 -47 8 -94 4 l-80 -5 70 -4
70 -3 -55 -7 c-30 -4 -102 -6 -160 -4 -92 1 -98 1 -50 -7 30 -5 100 -7 155 -3
346 21 705 219 1217 671 194 171 418 383 405 383 -5 0 -36 -26 -70 -57z"/>
<path d="M398 2283 c7 -3 16 -2 19 1 4 3 -2 6 -13 5 -11 0 -14 -3 -6 -6z"/>
<path d="M4172 2260 c0 -14 2 -19 5 -12 2 6 2 18 0 25 -3 6 -5 1 -5 -13z"/>
<path d="M4161 2134 c0 -11 3 -14 6 -6 3 7 2 16 -1 19 -3 4 -6 -2 -5 -13z"/>
<path d="M187 2039 c7 -7 15 -10 18 -7 3 3 -2 9 -12 12 -14 6 -15 5 -6 -5z"/>
<path d="M518 1583 c7 -3 16 -2 19 1 4 3 -2 6 -13 5 -11 0 -14 -3 -6 -6z"/>
<path d="M418 1563 c7 -3 16 -2 19 1 4 3 -2 6 -13 5 -11 0 -14 -3 -6 -6z"/>
<path d="M508 1273 c7 -3 16 -2 19 1 4 3 -2 6 -13 5 -11 0 -14 -3 -6 -6z"/>
<path d="M398 1253 c7 -3 16 -2 19 1 4 3 -2 6 -13 5 -11 0 -14 -3 -6 -6z"/>
</g>
</svg>
